
<svg width="142" height="66" viewBox="0 0 142 66" fill="none" xmlns="http://www.w3.org/2000/svg">
<path fill-rule="evenodd" clip-rule="evenodd" d="M34.7415 65.9502C13.8926 65.9502 0.000225067 54.962 0.000225067 33.2358C0.000225067 13.2401 12.4226 1.90735e-05 32.3399 1.90735e-05H44.4517V12.3018H37.578C22.7539 12.3018 17.433 18.9323 17.433 33.0064C17.433 45.6627 20.9113 53.8569 36.0666 53.8569H49.3171V42.1806L66.2737 56.6092V65.9502H34.7415ZM92.7955 41.3466V65.9502H75.8183V47.6018L49.3171 24.833V0.020874H66.2116V18.7863L92.7955 41.3466ZM92.7955 12.281V23.4986L75.8183 9.82062V1.90735e-05H109.752C131.715 1.90735e-05 140.905 11.6042 142 28.7023V35.8935C141.392 45.3387 138.221 54.6412 130.021 60.1955C121.308 66.175 110.979 66.073 101.048 65.9749C99.7943 65.9625 98.5464 65.9502 97.309 65.9502V53.8569H102.609C118.676 53.8569 124.618 50.6042 124.555 34.174C124.555 21.1425 120.953 12.281 106.253 12.281H92.7955Z" fill="#3B82F6"/>
</svg>
